<svg width="27" height="33" viewBox="0 0 27 33" fill="none" xmlns="http://www.w3.org/2000/svg">
<path d="M10.5002 30H16.5002C16.5002 30.7956 16.1841 31.5587 15.6215 32.1213C15.0589 32.6839 14.2958 33 13.5002 33C12.7045 33 11.9415 32.6839 11.3789 32.1213C10.8162 31.5587 10.5002 30.7956 10.5002 30ZM0.114174 26.0745C0.000616629 25.8003 -0.0290698 25.4987 0.0288706 25.2076C0.0868111 24.9166 0.229775 24.6493 0.439674 24.4395L3.00017 21.879V13.5C3.005 10.9777 3.91681 8.54136 5.56913 6.63569C7.22145 4.73001 9.50406 3.48217 12.0002 3.12V1.5C12.0002 1.10218 12.1582 0.720644 12.4395 0.43934C12.7208 0.158035 13.1024 0 13.5002 0C13.898 0 14.2795 0.158035 14.5608 0.43934C14.8421 0.720644 15.0002 1.10218 15.0002 1.5V3.12C17.4963 3.48217 19.7789 4.73001 21.4312 6.63569C23.0835 8.54136 23.9953 10.9777 24.0002 13.5V21.879L26.5607 24.4395C26.7704 24.6493 26.9132 24.9165 26.9711 25.2075C27.0289 25.4984 26.9992 25.7999 26.8857 26.074C26.7722 26.348 26.58 26.5823 26.3334 26.7471C26.0867 26.9119 25.7968 26.9999 25.5002 27H1.50017C1.20353 27.0001 0.913515 26.9122 0.666812 26.7475C0.420108 26.5827 0.22779 26.3485 0.114174 26.0745ZM5.12117 24H21.8792L21.4397 23.5605C21.1583 23.2793 21.0003 22.8978 21.0002 22.5V13.5C21.0002 11.5109 20.21 9.60322 18.8035 8.1967C17.397 6.79018 15.4893 6 13.5002 6C11.5111 6 9.6034 6.79018 8.19687 8.1967C6.79035 9.60322 6.00017 11.5109 6.00017 13.5V22.5C6.00009 22.8978 5.842 23.2793 5.56067 23.5605L5.12117 24Z" fill="black"/>
</svg>
