<svg width="29" height="30" viewBox="0 0 29 30" fill="none" xmlns="http://www.w3.org/2000/svg">
<path d="M1 10.4587H28M1 10.4587V23.5025C1 25.1627 1 25.9925 1.36786 26.6265C1.69142 27.1843 2.20736 27.6383 2.84241 27.9224C3.56365 28.2453 4.5083 28.2453 6.39479 28.2453H22.6052C24.4917 28.2453 25.435 28.2453 26.1562 27.9224C26.7912 27.6383 27.309 27.1843 27.6325 26.6265C28 25.993 28 25.1645 28 23.5075V10.4587M1 10.4587V9.27324C1 7.61299 1 6.78226 1.36786 6.14814C1.69142 5.59034 2.20736 5.13716 2.84241 4.85296C3.56436 4.52986 4.51015 4.52986 6.40034 4.52986H7.75M28 10.4587V9.26836C28 7.61136 28 6.78164 27.6325 6.14814C27.309 5.59034 26.7912 5.13716 26.1562 4.85296C25.4343 4.52986 24.4905 4.52986 22.6003 4.52986H21.25M7.75 4.52986H21.25M7.75 4.52986V1.56543M21.25 4.52986V1.56543" stroke="black" stroke-width="2" stroke-linecap="round" stroke-linejoin="round"/>
</svg>
