<svg width="29" height="29" viewBox="0 0 29 29" fill="none" xmlns="http://www.w3.org/2000/svg">
<path d="M5.76628 7.29963C8.08682 5.04196 10.6786 3.31218 12.4317 2.26455C13.7094 1.50101 15.2905 1.50101 16.5682 2.26455C18.3212 3.31218 20.9131 5.04196 23.2337 7.29963C28.2648 12.1946 27.9975 15.0242 27.9975 19.659C27.9975 21.837 27.8221 23.6739 27.6363 25.0094C27.4406 26.4143 26.1811 27.3836 24.7238 27.3836H22.4397C20.6857 27.3836 19.2639 26.0003 19.2639 24.2938V21.2039C19.2639 19.9746 18.7619 18.7958 17.8685 17.9267C16.9752 17.0575 15.7634 16.5692 14.5 16.5692C13.2365 16.5692 12.0249 17.0575 11.1314 17.9267C10.238 18.7958 9.73614 19.9746 9.73614 21.2039V24.2938C9.73614 26.0003 8.31424 27.3836 6.56025 27.3836H4.27609C2.81877 27.3836 1.55926 26.4143 1.36369 25.0092C1.17781 23.6739 1.00247 21.837 1.00247 19.659C1.00247 15.0242 0.735059 12.1946 5.76628 7.29963Z" stroke="black" stroke-width="2" stroke-linecap="round" stroke-linejoin="round"/>
</svg>
