<svg width="66" height="66" viewBox="0 0 66 66" fill="none" xmlns="http://www.w3.org/2000/svg">
<path d="M49.5 4.125H16.5C9.66548 4.125 4.125 9.66548 4.125 16.5V49.5C4.125 56.3345 9.66548 61.875 16.5 61.875H49.5C56.3345 61.875 61.875 56.3345 61.875 49.5V16.5C61.875 9.66548 56.3345 4.125 49.5 4.125Z" fill="url(#paint0_radial_155_349)"/>
<path d="M49.5 4.125H16.5C9.66548 4.125 4.125 9.66548 4.125 16.5V49.5C4.125 56.3345 9.66548 61.875 16.5 61.875H49.5C56.3345 61.875 61.875 56.3345 61.875 49.5V16.5C61.875 9.66548 56.3345 4.125 49.5 4.125Z" fill="url(#paint1_radial_155_349)"/>
<path d="M49.5 4.125H16.5C9.66548 4.125 4.125 9.66548 4.125 16.5V49.5C4.125 56.3345 9.66548 61.875 16.5 61.875H49.5C56.3345 61.875 61.875 56.3345 61.875 49.5V16.5C61.875 9.66548 56.3345 4.125 49.5 4.125Z" fill="url(#paint2_radial_155_349)"/>
<path d="M47.4375 21.6562C47.4375 23.3648 46.0523 24.75 44.3438 24.75C42.6352 24.75 41.25 23.3648 41.25 21.6562C41.25 19.9476 42.6352 18.5625 44.3438 18.5625C46.0523 18.5625 47.4375 19.9476 47.4375 21.6562Z" fill="white"/>
<path fill-rule="evenodd" clip-rule="evenodd" d="M33 43.3125C38.6954 43.3125 43.3125 38.6954 43.3125 33C43.3125 27.3046 38.6954 22.6875 33 22.6875C27.3046 22.6875 22.6875 27.3046 22.6875 33C22.6875 38.6954 27.3046 43.3125 33 43.3125ZM33 39.1875C36.4174 39.1875 39.1875 36.4174 39.1875 33C39.1875 29.5826 36.4174 26.8125 33 26.8125C29.5826 26.8125 26.8125 29.5826 26.8125 33C26.8125 36.4174 29.5826 39.1875 33 39.1875Z" fill="white"/>
<path fill-rule="evenodd" clip-rule="evenodd" d="M12.375 32.175C12.375 25.2444 12.375 21.779 13.7238 19.1319C14.9102 16.8034 16.8034 14.9102 19.1319 13.7238C21.779 12.375 25.2444 12.375 32.175 12.375H33.825C40.7556 12.375 44.221 12.375 46.868 13.7238C49.1966 14.9102 51.0898 16.8034 52.2761 19.1319C53.625 21.779 53.625 25.2444 53.625 32.175V33.825C53.625 40.7556 53.625 44.221 52.2761 46.868C51.0898 49.1966 49.1966 51.0898 46.868 52.2761C44.221 53.625 40.7556 53.625 33.825 53.625H32.175C25.2444 53.625 21.779 53.625 19.1319 52.2761C16.8034 51.0898 14.9102 49.1966 13.7238 46.868C12.375 44.221 12.375 40.7556 12.375 33.825V32.175ZM32.175 16.5H33.825C37.3585 16.5 39.7603 16.5032 41.6169 16.6549C43.4255 16.8027 44.3503 17.0705 44.9955 17.3992C46.5477 18.1902 47.8098 19.4522 48.6007 21.0045C48.9295 21.6496 49.1974 22.5745 49.3451 24.3831C49.4967 26.2397 49.5 28.6415 49.5 32.175V33.825C49.5 37.3585 49.4967 39.7603 49.3451 41.6169C49.1974 43.4255 48.9295 44.3503 48.6007 44.9955C47.8098 46.5477 46.5477 47.8098 44.9955 48.6007C44.3503 48.9295 43.4255 49.1974 41.6169 49.3451C39.7603 49.4967 37.3585 49.5 33.825 49.5H32.175C28.6415 49.5 26.2397 49.4967 24.3831 49.3451C22.5745 49.1974 21.6496 48.9295 21.0045 48.6007C19.4522 47.8098 18.1902 46.5477 17.3992 44.9955C17.0705 44.3503 16.8027 43.4255 16.6549 41.6169C16.5032 39.7603 16.5 37.3585 16.5 33.825V32.175C16.5 28.6415 16.5032 26.2397 16.6549 24.3831C16.8027 22.5745 17.0705 21.6496 17.3992 21.0045C18.1902 19.4522 19.4522 18.1902 21.0045 17.3992C21.6496 17.0705 22.5745 16.8027 24.3831 16.6549C26.2397 16.5032 28.6415 16.5 32.175 16.5Z" fill="white"/>
<defs>
<radialGradient id="paint0_radial_155_349" cx="0" cy="0" r="1" gradientUnits="userSpaceOnUse" gradientTransform="translate(24.75 47.4375) rotate(-55.3758) scale(52.6342)">
<stop stop-color="#B13589"/>
<stop offset="0.79309" stop-color="#C62F94"/>
<stop offset="1" stop-color="#8A3AC8"/>
</radialGradient>
<radialGradient id="paint1_radial_155_349" cx="0" cy="0" r="1" gradientUnits="userSpaceOnUse" gradientTransform="translate(22.6875 63.9375) rotate(-65.1363) scale(46.6005)">
<stop stop-color="#E0E8B7"/>
<stop offset="0.444662" stop-color="#FB8A2E"/>
<stop offset="0.71474" stop-color="#E2425C"/>
<stop offset="1" stop-color="#E2425C" stop-opacity="0"/>
</radialGradient>
<radialGradient id="paint2_radial_155_349" cx="0" cy="0" r="1" gradientUnits="userSpaceOnUse" gradientTransform="translate(1.03125 6.1875) rotate(-8.1301) scale(80.2125 17.1566)">
<stop offset="0.156701" stop-color="#406ADC"/>
<stop offset="0.467799" stop-color="#6A45BE"/>
<stop offset="1" stop-color="#6A45BE" stop-opacity="0"/>
</radialGradient>
</defs>
</svg>
