<svg width="35" height="34" viewBox="0 0 35 34" fill="none" xmlns="http://www.w3.org/2000/svg">
<path d="M1 11.5402V29.8098C1 30.7938 1 31.2853 1.19772 31.661C1.37165 31.9917 1.64897 32.2608 1.9903 32.4292C2.37797 32.6206 2.88573 32.6206 3.89973 32.6206H22.7691M26.3971 9.78349L19.1408 16.8103L15.5126 13.2969M8.2563 19.9727V6.62178C8.2563 4.65409 8.2563 3.66951 8.65175 2.91796C8.99958 2.25686 9.55422 1.71977 10.2369 1.38294C11.013 1 12.0297 1 14.0617 1H27.8487C29.8806 1 30.8962 1 31.6722 1.38294C32.3548 1.71977 32.9105 2.25686 33.2583 2.91796C33.6537 3.66951 33.6537 4.65339 33.6537 6.62105V19.972C33.6537 21.9397 33.6537 22.9236 33.2583 23.6751C32.9105 24.3361 32.3548 24.8744 31.6722 25.2112C30.8969 25.5938 29.8828 25.5938 27.8549 25.5938H14.0557C12.0277 25.5938 11.0122 25.5938 10.2369 25.2112C9.55422 24.8744 8.99958 24.3363 8.65175 23.6753C8.2563 22.9238 8.2563 21.9404 8.2563 19.9727Z" stroke="white" stroke-width="2" stroke-linecap="round" stroke-linejoin="round"/>
</svg>
