<svg width="33" height="33" viewBox="0 0 33 33" fill="none" xmlns="http://www.w3.org/2000/svg">
<path d="M4.3999 3.06978C4.3999 2.58952 4.79389 2.2002 5.2799 2.2002H29.9199C30.406 2.2002 30.7999 2.58952 30.7999 3.06978V23.0702C30.7999 23.5505 30.406 23.9398 29.9199 23.9398H23.8467C23.6041 23.9398 23.3723 24.0388 23.2059 24.2134L18.2407 29.4266C17.8932 29.7914 17.3066 29.7914 16.9591 29.4266L11.9938 24.2134C11.8275 24.0388 11.5956 23.9398 11.353 23.9398H5.2799C4.79389 23.9398 4.3999 23.5505 4.3999 23.0702V3.06978Z" stroke="black" stroke-width="2"/>
<path d="M17.05 7.7002L19.2059 11.5942L23.1 13.7502L19.2059 15.9061L17.05 19.8002L14.8941 15.9061L11 13.7502L14.8941 11.5942L17.05 7.7002Z" stroke="black" stroke-width="2" stroke-linecap="round" stroke-linejoin="round"/>
</svg>
