<svg width="85" height="84" viewBox="0 0 85 84" fill="none" xmlns="http://www.w3.org/2000/svg">
<g filter="url(#filter0_d_155_327)">
<path d="M7.48828 3.19508C7.48828 1.98277 8.47105 1 9.68336 1V1C10.8957 1 11.8784 1.98277 11.8784 3.19508V29.5361C11.8784 30.7484 10.8957 31.7311 9.68336 31.7311V31.7311C8.47105 31.7311 7.48828 30.7484 7.48828 29.5361V3.19508Z" stroke="black" stroke-width="0.5"/>
<rect width="4.43198" height="19.6167" rx="2.21599" transform="matrix(-0.707107 -0.707107 -0.707107 0.707107 24.0049 18.8892)" stroke="url(#paint0_linear_155_327)" stroke-width="0.5"/>
<rect x="29.4395" y="1" width="4.51211" height="30.7311" rx="2.25606" stroke="url(#paint1_linear_155_327)" stroke-width="0.5"/>
<rect x="17.9502" y="19.0146" width="4.43198" height="18.9781" rx="2.21599" transform="rotate(-45 17.9502 19.0146)" stroke="black" stroke-width="0.5"/>
<path d="M63.8299 29.4262L64.0084 29.2512L63.5799 28.8139V29.4262H63.8299ZM63.8299 18.6722H63.5799V19.2845L64.0084 18.8472L63.8299 18.6722ZM60.9092 2.58582C60.9092 1.84834 61.507 1.25049 62.2445 1.25049V0.750488C61.2309 0.750488 60.4092 1.5722 60.4092 2.58582H60.9092ZM60.9092 30.1463V2.58582H60.4092V30.1463H60.9092ZM62.2445 31.4816C61.507 31.4816 60.9092 30.8838 60.9092 30.1463H60.4092C60.4092 31.1599 61.2309 31.9816 62.2445 31.9816V31.4816ZM63.5799 30.1463C63.5799 30.8838 62.982 31.4816 62.2445 31.4816V31.9816C63.2581 31.9816 64.0799 31.1599 64.0799 30.1463H63.5799ZM63.5799 29.4262V30.1463H64.0799V29.4262H63.5799ZM63.6513 29.6011C65.0908 31.0701 67.0979 31.982 69.3174 31.982V31.482C67.2376 31.482 65.3578 30.6281 64.0084 29.2512L63.6513 29.6011ZM69.3174 31.982C73.6986 31.982 77.2502 28.4303 77.2502 24.0492H76.7502C76.7502 28.1542 73.4224 31.482 69.3174 31.482V31.982ZM77.2502 24.0492C77.2502 19.668 73.6986 16.1164 69.3174 16.1164V16.6164C73.4224 16.6164 76.7502 19.9442 76.7502 24.0492H77.2502ZM69.3174 16.1164C67.0979 16.1164 65.0908 17.0283 63.6513 18.4972L64.0084 18.8472C65.3578 17.4703 67.2376 16.6164 69.3174 16.6164V16.1164ZM63.5799 2.58582V18.6722H64.0799V2.58582H63.5799ZM62.2445 1.25049C62.982 1.25049 63.5799 1.84834 63.5799 2.58582H64.0799C64.0799 1.5722 63.2581 0.750488 62.2445 0.750488V1.25049ZM69.3174 18.482C66.2427 18.482 63.7502 20.9745 63.7502 24.0492H64.2502C64.2502 21.2506 66.5189 18.982 69.3174 18.982V18.482ZM74.8846 24.0492C74.8846 20.9745 72.3921 18.482 69.3174 18.482V18.982C72.116 18.982 74.3846 21.2506 74.3846 24.0492H74.8846ZM69.3174 29.6164C72.3921 29.6164 74.8846 27.1239 74.8846 24.0492H74.3846C74.3846 26.8477 72.116 29.1164 69.3174 29.1164V29.6164ZM63.7502 24.0492C63.7502 27.1239 66.2427 29.6164 69.3174 29.6164V29.1164C66.5189 29.1164 64.2502 26.8477 64.2502 24.0492H63.7502Z" fill="black"/>
<path d="M63.8299 66.7412L64.0084 66.5662L63.5799 66.1288V66.7412H63.8299ZM63.8299 55.9882H63.5799V56.6005L64.0084 56.1631L63.8299 55.9882ZM60.9092 40.0238C60.9092 39.2863 61.507 38.6885 62.2445 38.6885V38.1885C61.2309 38.1885 60.4092 39.0102 60.4092 40.0238H60.9092ZM60.9092 67.4623V40.0238H60.4092V67.4623H60.9092ZM62.2445 68.7977C61.507 68.7977 60.9092 68.1998 60.9092 67.4623H60.4092C60.4092 68.4759 61.2309 69.2977 62.2445 69.2977V68.7977ZM63.5799 67.4623C63.5799 68.1998 62.982 68.7977 62.2445 68.7977V69.2977C63.2581 69.2977 64.0799 68.4759 64.0799 67.4623H63.5799ZM63.5799 66.7412V67.4623H64.0799V66.7412H63.5799ZM63.6513 66.9161C65.0908 68.3854 67.0981 69.2975 69.3179 69.2975V68.7975C67.2379 68.7975 65.3578 67.9434 64.0084 66.5662L63.6513 66.9161ZM69.3179 69.2975C73.699 69.2975 77.2507 65.7458 77.2507 61.3647H76.7507C76.7507 65.4697 73.4229 68.7975 69.3179 68.7975V69.2975ZM77.2507 61.3647C77.2507 56.9835 73.699 53.4319 69.3179 53.4319V53.9319C73.4229 53.9319 76.7507 57.2597 76.7507 61.3647H77.2507ZM69.3179 53.4319C67.0981 53.4319 65.0908 54.344 63.6513 55.8132L64.0084 56.1631C65.3578 54.7859 67.2379 53.9319 69.3179 53.9319V53.4319ZM63.5799 40.0238V55.9882H64.0799V40.0238H63.5799ZM62.2445 38.6885C62.982 38.6885 63.5799 39.2863 63.5799 40.0238H64.0799C64.0799 39.0102 63.2581 38.1885 62.2445 38.1885V38.6885ZM69.3179 55.7975C66.2432 55.7975 63.7507 58.29 63.7507 61.3647H64.2507C64.2507 58.5661 66.5193 56.2975 69.3179 56.2975V55.7975ZM74.8851 61.3647C74.8851 58.29 72.3926 55.7975 69.3179 55.7975V56.2975C72.1164 56.2975 74.3851 58.5661 74.3851 61.3647H74.8851ZM69.3179 66.9319C72.3926 66.9319 74.8851 64.4394 74.8851 61.3647H74.3851C74.3851 64.1632 72.1164 66.4319 69.3179 66.4319V66.9319ZM63.7507 61.3647C63.7507 64.4394 66.2432 66.9319 69.3179 66.9319V66.4319C66.5193 66.4319 64.2507 64.1632 64.2507 61.3647H63.7507Z" fill="black"/>
<rect x="29.5615" y="38.4385" width="4.51211" height="30.6092" rx="2.25606" stroke="url(#paint2_linear_155_327)" stroke-width="0.5"/>
<rect x="53.8291" y="64.5352" width="4.51211" height="24.2678" rx="2.25606" transform="rotate(90 53.8291 64.5352)" stroke="url(#paint3_linear_155_327)" stroke-width="0.5"/>
<rect x="54.5605" y="16.3657" width="3.17067" height="13.1705" rx="1.58534" transform="rotate(90 54.5605 16.3657)" stroke="black" stroke-width="0.5"/>
<rect x="51.0244" y="22.3408" width="2.92677" height="13.1705" rx="1.46339" transform="rotate(90 51.0244 22.3408)" stroke="url(#paint4_linear_155_327)" stroke-width="0.5"/>
<rect x="54.5605" y="28.1948" width="3.04872" height="13.1705" rx="1.52436" transform="rotate(90 54.5605 28.1948)" stroke="black" stroke-width="0.5"/>
<path d="M51.5131 59.4536H51.7631V58.7174L51.3148 59.3013L51.5131 59.4536ZM51.5131 50.1053L51.3148 50.2576L51.7631 50.8416V50.1053H51.5131ZM45.4152 49.2122C42.3405 49.2122 39.848 51.7048 39.848 54.7795H40.348C40.348 51.9809 42.6167 49.7122 45.4152 49.7122V49.2122ZM50.9824 54.7795C50.9824 51.7048 48.4899 49.2122 45.4152 49.2122V49.7122C48.2138 49.7122 50.4824 51.9809 50.4824 54.7795H50.9824ZM45.4152 60.3467C48.4899 60.3467 50.9824 57.8542 50.9824 54.7795H50.4824C50.4824 57.578 48.2138 59.8467 45.4152 59.8467V60.3467ZM39.848 54.7795C39.848 57.8542 42.3405 60.3467 45.4152 60.3467V59.8467C42.6167 59.8467 40.348 57.578 40.348 54.7795H39.848ZM45.4152 62.7122C47.9807 62.7122 50.2617 61.4942 51.7114 59.6058L51.3148 59.3013C49.9557 61.0717 47.8187 62.2122 45.4152 62.2122V62.7122ZM37.4824 54.7795C37.4824 59.1606 41.0341 62.7122 45.4152 62.7122V62.2122C41.3102 62.2122 37.9824 58.8845 37.9824 54.7795H37.4824ZM45.4152 46.8467C41.0341 46.8467 37.4824 50.3983 37.4824 54.7795H37.9824C37.9824 50.6745 41.3102 47.3467 45.4152 47.3467V46.8467ZM51.7114 49.9531C50.2617 48.0648 47.9807 46.8467 45.4152 46.8467V47.3467C47.8187 47.3467 49.9557 48.4872 51.3148 50.2576L51.7114 49.9531ZM51.7631 50.1053V49.7188H51.2631V50.1053H51.7631ZM51.7631 49.7188C51.7631 49.015 52.3336 48.4445 53.0374 48.4445V47.9445C52.0575 47.9445 51.2631 48.7389 51.2631 49.7188H51.7631ZM53.0374 48.4445C53.7412 48.4445 54.3118 49.015 54.3118 49.7188H54.8118C54.8118 48.7389 54.0174 47.9445 53.0374 47.9445V48.4445ZM54.3118 49.7188V59.8406H54.8118V49.7188H54.3118ZM54.3118 59.8406C54.3118 60.5444 53.7412 61.115 53.0374 61.115V61.615C54.0174 61.615 54.8118 60.8205 54.8118 59.8406H54.3118ZM53.0374 61.115C52.3336 61.115 51.7631 60.5444 51.7631 59.8406H51.2631C51.2631 60.8205 52.0575 61.615 53.0374 61.615V61.115ZM51.7631 59.8406V59.4536H51.2631V59.8406H51.7631Z" fill="url(#paint5_linear_155_327)"/>
<rect x="51.0244" y="22.3408" width="2.92677" height="13.1705" rx="1.46339" transform="rotate(90 51.0244 22.3408)" stroke="url(#paint6_linear_155_327)" stroke-width="0.5"/>
<path d="M54.3114 49.7192V59.8409H54.8114V49.7192H54.3114ZM51.7627 59.8409V49.7192H51.2627V59.8409H51.7627ZM53.0371 61.1153C52.3332 61.1153 51.7627 60.5448 51.7627 59.8409H51.2627C51.2627 60.8209 52.0571 61.6153 53.0371 61.6153V61.1153ZM54.3114 59.8409C54.3114 60.5448 53.7409 61.1153 53.0371 61.1153V61.6153C54.017 61.6153 54.8114 60.8209 54.8114 59.8409H54.3114ZM53.0371 48.4448C53.7409 48.4448 54.3114 49.0154 54.3114 49.7192H54.8114C54.8114 48.7392 54.017 47.9448 53.0371 47.9448V48.4448ZM53.0371 47.9448C52.0571 47.9448 51.2627 48.7392 51.2627 49.7192H51.7627C51.7627 49.0154 52.3332 48.4448 53.0371 48.4448V47.9448Z" fill="url(#paint7_linear_155_327)"/>
</g>
<defs>
<filter id="filter0_d_155_327" x="0.238281" y="0.75" width="84.0127" height="82.5479" filterUnits="userSpaceOnUse" color-interpolation-filters="sRGB">
<feFlood flood-opacity="0" result="BackgroundImageFix"/>
<feColorMatrix in="SourceAlpha" type="matrix" values="0 0 0 0 0 0 0 0 0 0 0 0 0 0 0 0 0 0 127 0" result="hardAlpha"/>
<feOffset dy="7"/>
<feGaussianBlur stdDeviation="3.5"/>
<feComposite in2="hardAlpha" operator="out"/>
<feColorMatrix type="matrix" values="0 0 0 0 0 0 0 0 0 0 0 0 0 0 0 0 0 0 0.2 0"/>
<feBlend mode="normal" in2="BackgroundImageFix" result="effect1_dropShadow_155_327"/>
<feBlend mode="normal" in="SourceGraphic" in2="effect1_dropShadow_155_327" result="shape"/>
</filter>
<linearGradient id="paint0_linear_155_327" x1="2.21599" y1="0" x2="2.21599" y2="19.6167" gradientUnits="userSpaceOnUse">
<stop/>
<stop offset="1" stop-opacity="0"/>
</linearGradient>
<linearGradient id="paint1_linear_155_327" x1="31.6955" y1="1" x2="31.6955" y2="31.7311" gradientUnits="userSpaceOnUse">
<stop offset="0.466697"/>
<stop offset="1" stop-opacity="0"/>
</linearGradient>
<linearGradient id="paint2_linear_155_327" x1="31.8176" y1="38.4385" x2="31.8176" y2="69.0477" gradientUnits="userSpaceOnUse">
<stop offset="0.838542"/>
<stop offset="1" stop-opacity="0"/>
</linearGradient>
<linearGradient id="paint3_linear_155_327" x1="56.0852" y1="64.5352" x2="56.0852" y2="88.803" gradientUnits="userSpaceOnUse">
<stop/>
<stop offset="0.354167" stop-opacity="0.911458"/>
<stop offset="1" stop-opacity="0"/>
</linearGradient>
<linearGradient id="paint4_linear_155_327" x1="52.4878" y1="22.3408" x2="52.4878" y2="35.5113" gradientUnits="userSpaceOnUse">
<stop offset="0.552083"/>
<stop offset="1" stop-opacity="0"/>
</linearGradient>
<linearGradient id="paint5_linear_155_327" x1="46.1471" y1="56.1819" x2="46.1471" y2="62.4622" gradientUnits="userSpaceOnUse">
<stop/>
<stop offset="1" stop-opacity="0"/>
</linearGradient>
<linearGradient id="paint6_linear_155_327" x1="52.4878" y1="22.3408" x2="52.4878" y2="35.5113" gradientUnits="userSpaceOnUse">
<stop offset="0.4375"/>
<stop offset="1" stop-opacity="0"/>
</linearGradient>
<linearGradient id="paint7_linear_155_327" x1="53.4768" y1="50.3934" x2="53.4768" y2="57.3817" gradientUnits="userSpaceOnUse">
<stop/>
<stop offset="0.9997" stop-color="white" stop-opacity="0"/>
<stop offset="0.9998" stop-color="white" stop-opacity="0.955236"/>
<stop offset="0.9999" stop-color="white" stop-opacity="0.65625"/>
<stop offset="1" stop-opacity="0"/>
</linearGradient>
</defs>
</svg>
